<svg width="32" height="32" viewBox="0 0 100 100" fill="none" xmlns="http://www.w3.org/2000/svg">
  <defs>
    <linearGradient id="nebula-grad" x1="0%" y1="0%" x2="100%" y2="100%">
      <stop offset="0%" stopColor="#6EE7FF" />
      <stop offset="50%" stopColor="#C084FC" />
      <stop offset="100%" stopColor="#F472B6" />
    </linearGradient>
  </defs>
  <path d="M50 20C33.4315 20 20 33.4315 20 50C20 66.5685 33.4315 80 50 80C66.5685 80 80 66.5685 80 50C80 33.4315 66.5685 20 50 20ZM50 70C38.9543 70 30 61.0457 30 50C30 38.9543 38.9543 30 50 30C61.0457 30 70 38.9543 70 50C70 61.0457 61.0457 70 50 70Z" fill="url(#nebula-grad)" />
  <circle cx="50" cy="50" r="10" fill="white" fill-opacity="0.8" />
</svg>
